<svg width="100" height="100" viewBox="0 0 100 100" fill="none" xmlns="http://www.w3.org/2000/svg">
  <rect y="-1.90735e-06" width="100" height="100" rx="25" fill="url(#paint0_linear_202_2)" />
  <path d="M45.8333 58.3333C45.8333 56.0333 47.7 54.1667 50 54.1667C52.3 54.1667 54.1667 56.0333 54.1667 58.3333C54.1667 59.8708 53.325 61.2 52.0833 61.9229V66.6667H47.9167V61.9229C46.675 61.2 45.8333 59.8708 45.8333 58.3333ZM68.75 45.8333V75H31.25V45.8333H37.5V37.5C37.5 30.5979 43.0979 25 50 25C56.9021 25 62.5 30.5979 62.5 37.5V45.8333H68.75ZM41.6667 45.8333H58.3333V37.5C58.3333 32.9042 54.5937 29.1667 50 29.1667C45.4062 29.1667 41.6667 32.9042 41.6667 37.5V45.8333ZM64.5833 50H35.4167V70.8333H64.5833V50Z"
        fill="white" />
  <defs>
    <linearGradient id="paint0_linear_202_2" x1="100" y1="-1.90735e-06" x2="0" y2="100" gradientUnits="userSpaceOnUse">
      <stop stop-color="#0805BD" />
      <stop offset="1" stop-color="#080667" />
    </linearGradient>
  </defs>
</svg>
